<svg xmlns="http://www.w3.org/2000/svg" width="74" height="74" viewBox="0 0 74 74">
  <g fill="none" fill-rule="evenodd">
    <path fill="#FFF" fill-rule="nonzero" d="M0.19996561,36.7 C0.19996561,51.4719601 9.10385376,64.7874674 22.75525,70.4310644 C36.4066462,76.0746614 52.113762,72.9335041 62.544777,62.4738324 C72.9757921,52.0141608 76.0738454,36.2984863 70.3928173,22.6626246 C64.7117892,9.02676287 51.3719047,0.159528877 36.6,0.199862045 C26.9328561,0.213251733 17.6669186,4.06622335 10.8405924,10.9113031 C4.01426628,17.7563829 0.186730076,27.0328562 0.19996561,36.7"/>
    <path stroke="#231F20" stroke-width=".39" d="M0.19996561,36.7 C0.19996561,51.4719601 9.10385376,64.7874674 22.75525,70.4310644 C36.4066462,76.0746614 52.113762,72.9335041 62.544777,62.4738324 C72.9757921,52.0141608 76.0738454,36.2984863 70.3928173,22.6626246 C64.7117892,9.02676287 51.3719047,0.159528877 36.6,0.199862045 C26.9328561,0.213251733 17.6669186,4.06622335 10.8405924,10.9113031 C4.01426628,17.7563829 0.186730076,27.0328562 0.19996561,36.7 L0.19996561,36.7 Z"/>
    <path fill="#231F20" fill-rule="nonzero" d="M72.200036,36.6 C72.2275947,17.0215342 56.3784891,1.12767826 36.8000234,1.10003454 C17.2215577,1.07246285 1.32769118,16.9215579 1.30003444,36.5000236 C1.2724498,56.0784893 17.1215343,71.9723663 36.7,72.0001414 C46.105978,72.0265707 55.1358181,68.3086717 61.7962497,61.6670018 C68.4566814,55.025332 72.200036,46.0060156 72.200036,36.6"/>
    <path stroke="#231F20" stroke-width=".39" d="M72.200036,36.6 C72.2275947,17.0215342 56.3784891,1.12767826 36.8000234,1.10003454 C17.2215577,1.07246285 1.32769118,16.9215579 1.30003444,36.5000236 C1.2724498,56.0784893 17.1215343,71.9723663 36.7,72.0001414 C46.105978,72.0265707 55.1358181,68.3086717 61.7962497,61.6670018 C68.4566814,55.025332 72.200036,46.0060156 72.200036,36.6"/>
    <path fill="#FFF" fill-rule="nonzero" d="M57,16.6 C55.8224065,16.7546766 54.7128177,17.2401217 53.8,18 C53.9798223,18.4097747 54.1800736,18.8102773 54.4,19.2 C53.6559306,19.8128052 52.8518468,20.348861 52,20.8 C51,22.3 49.3,23.1 47.8,24.1 C48.9295009,22.6061369 50.2780251,21.2913257 51.8,20.2 C52.4,19.7 53.8,19.2 53.2,18.5 C51.9,18 51.3,18.9 50.6,19.6 C49.1040264,20.9406208 47.7318183,22.4132345 46.5,24 C45.0787667,25.4731561 43.8977111,27.1603784 43,29 C42.8,29.5 42.2,30.5 43.1,30.9 C44.6,28.9 45.7,26.6 47.4,24.9 C47.4,25.1 47.6,25.2 47.9,25.2 C50.4,24.2 52.1,22 54.3,20.8 C53.9,21.6 53.5,22.2 53.1,22.9 C52.7,23.6 52,24.2 52.1,25.3 C53.3,25.3 53.4,23.4 54.2,23.1 C54.7,22.9 55,23.2 55.4,23.5 C52.9,28.2 47.6,29.9 44.5,34 C44.7,34.2 44.9,34.5 45.2,34.6 C48.0648529,32.0046204 51.0693279,29.5676573 54.2,27.3 C54.6574494,28.0231731 55.2319485,28.6652604 55.9,29.2 C55.1,30.1 54.2,30.9 53.4,31.7 C52.4506501,32.4158346 51.6377209,33.2965079 51,34.3 C51.6,34.8 52.1,34.2 52.5,33.9 C53.8684144,32.8489023 55.3431204,31.9439691 56.9,31.2 C55.963043,32.751397 54.856221,34.1936195 53.6,35.5 C53.2,35.9 52.5,36.4 52.7,37.2 C54.1,36.9 54.7,35.8 55.7,35.2 C55.8,35.3 55.8,35.6 56,35.6 C56.5653433,35.2021579 57.0420457,34.6914053 57.4,34.1 C58.0712072,33.9564035 58.770519,34.0263347 59.4,34.3 C58.0426587,35.8073626 56.6073626,37.2426587 55.1,38.6 C53.6,38.3 52.9,37.3 51.6,36.8 C51.2,36.2 51.3,34.8 50.4,34.8 C50,34.8 49.2,35.6 48.7,36 C47.2,37.4 46.2,39.8 45.2,41.2 C44.4692816,41.084257 43.7458367,41.4459795 43.4,42.1 C43.5998125,42.5466218 44.0100592,42.8634634 44.4926832,42.9439007 C44.9753072,43.0243381 45.4661378,42.857676 45.8,42.5 C46.8,41.7 47.5,39.7 48.1,38.8 C48.138416,40.1032641 48.0715319,41.4075024 47.9,42.7 C48.4,43.4 48.9,43.9 49.4,44.6 C49.8,46.7 48.4,51.4 50.8,51.2 C52.1,49.4 50.7,45.9 51.5,43.7 C52.4174721,44.1723635 53.5437039,43.8691473 54.1,43 C53.8,42.4 53.2,42.1 52.9,41.6 C53.1,41.2 53.1,40.7 53.5,40.6 C54.3,40.7 54.8,41.7 55.6,41.5 C56,41.4 56.8,40.5 57.3,40.1 C58.9,38.6 60.6,36.8 61.9,35.4 C61.8758923,33.817858 62.2913047,32.2600612 63.1,30.9 C63.7064701,31.1252442 64.3599222,31.1940286 65,31.1 L66,31.1 C66.4755315,30.7037794 66.8811692,30.2305355 67.2,29.7 C66.9,28.9 66,28.7 65.3,28.3 C66.3,27.7 64.9,26.6 64.4,26.2 C62.8,24.8 60.6,23.8 59.7,22.2 C59.6013981,21.3534569 59.3290443,20.5363956 58.9,19.8 C58.5458919,19.2989625 58.2443023,18.7628032 58,18.2 C57.9,17.7 58.3,17.3 58.1,16.7 L57,16.7"/>
    <path fill="#FFF" fill-rule="nonzero" d="M51.7,49.2 C51.6380645,49.7116677 51.9241241,50.2020556 52.4,50.4 C53.1999593,49.8863867 53.9381495,49.282413 54.6,48.6 C54.2,48.1 54.1,47.6 53.6,47.6 L53.6,47.6 C52.9,47.5 51.7,48.8 51.7,49.2 M46.1,45.3 C45.9,46.7 46.5,47.7 46.5,49.2 C45.4,50 45.3,49 45.1,48.1 C44.9,47.4 44.7,46.6 44.1,46.7 C43.5,46.8 43.4,47.4 43.3,48 C43.4633631,49.4983399 43.9772285,50.9371631 44.8,52.2 C45.7635546,52.3465169 46.7044824,52.6153535 47.6,53 L47.6,53 C47.6,50.8 47.4,48.1 47.4,45.7 C47.1929782,45.4709987 46.9074141,45.3282167 46.6,45.3 C46.5,45.1 46.3,45.1 46.1,45.3 M41.8,37.2 C43.2,37.9 45,36.6 45.8,36 C45.5137568,35.7826688 45.1586055,35.6761234 44.8,35.7 C43.6215009,35.7077407 42.5132921,36.2618451 41.8,37.2 M42,33.1 C41.5,33.4 39.8,34.4 41,35 C42.1,33.8 43.5,32.9 44.5,31.7 C44.3890756,31.5175783 44.3207135,31.312492 44.3,31.1 C43.1365759,31.0855632 42.147255,31.9458423 42,33.1"/>
    <path fill="#FFF" fill-rule="nonzero" d="M41.7,30.9 C40.6194656,32.8276341 39.0276341,34.4194656 37.1,35.5 C36.9900749,35.5132315 36.8800012,35.4765403 36.8,35.4 C36.7,35.4 36.6,35.3 36.5,35.3 C34.879261,36.2575246 33.4542223,37.5129158 32.3,39 C32.6,40 33.8,39.3 34.4,38.9 C36.6546571,37.4423613 38.7348881,35.7312035 40.6,33.8 C41.3,33 42.3,32.1 42.1,30.9 L41.7,30.9 M36.6,38.8 C37.9,41.3 39.2,43.9 41.3,45.7 C41.4845311,45.5816795 41.6250721,45.4060031 41.7,45.2 C40.4,43 39.7,40.2 38.4,38.1 L38,38.1 C37.4279163,37.9838477 36.8503284,38.2726417 36.6,38.8"/>
    <path fill="#FFF" fill-rule="nonzero" d="M30.8,31.8 C30.6,31.7 30.5,31.4 30.2,31.4 C29.7440003,31.7747246 29.3099491,32.1753873 28.9,32.6 C28.4,32.1 28.6,31 27.6,31.1 C27,31.4 26.1,33.5 27.3,33.7 C27.7,33.8 27.9,33.5 28.3,33.4 C27.2,34.7 25.9,36.2 25,37.5 L25,37.5 C25.5,36.3 26.6,34.9 26.3,33.4 C25.5,33.6 25.2,34.5 24.9,35.1 C24.2,36.5 23.6,38 23,39.5 C22.7,40.2 22.1,41 22.2,41.8 L22.8,41.8 C24.8,39.7 26.5,37.1 28.3,34.9 C28.8872054,34.1284052 29.5579498,33.4241236 30.3,32.8 C30.5,33.1 30.1,34 30.6,34.1 C31.4,33.6 31.4,32.7 31.8,32 C32.5,30.9 34,30.4 35,29.8 C33.2,33.2 30.9,36 29.1,39.4 C29.8,40 30.1,39.4 30.5,38.8 C30.9,38.2 31.1,37.8 31.6,38 C31.5,38.9 30.3,39.4 30,40.3 C30.7,40.7 31.3,39.8 31.7,39.3 C33.2,37.7 35,36.1 35.9,34.2 C35.7,34.2 35.6,34.1 35.5,33.9 C34.9,34.1 34.6,34.9 33.8,34.7 C33.9,34.2 34.6,33.8 34.7,33.2 C34.8,32.9 34.6,32.5 34.6,32.2 C34.8,30.9 36,30.3 37.2,29.9 C36.5,30.6 37,32.1 36.9,33.4 C37.1038629,33.7359348 37.42422,33.9851014 37.8,34.1 C38.4407815,33.6552919 38.8737875,32.9696991 39,32.2 C39,31.8 38.7,31 38.7,30.3 C38.701712,29.6968369 38.5279926,29.1061912 38.2,28.6 C38.9,27.8 38.2,26.9 37.6,26.3 C35.4,28.4 32.6,29.6 30.8,31.8 M35.7,39.7 C35.1,40.3 33.9,42 32.9,42.5 C32.6405362,42.57657 32.3703284,42.610346 32.1,42.6 C30.5032084,43.2683663 29.0190866,44.1790774 27.7,45.3 C26.7044877,46.0244681 25.7681997,46.8270006 24.9,47.7 C24.7,47.9 24.1,48.2 24.3,48.7 C25.6,48.5 26.5,47.5 27.4,46.8 C28.3141382,45.9562469 29.3204945,45.2182523 30.4,44.6 C30.7492521,44.7770716 31.1185856,44.9113747 31.5,45 C32.9613468,43.9804017 34.3636048,42.8786275 35.7,41.7 C35.7,40.7 36.4,40.5 36.5,39.7 C36.3,39.6 36.2,39.5 36.1,39.5 C36,39.5 35.9,39.6 35.7,39.7"/>
    <path fill="#FFF" fill-rule="nonzero" d="M26.3 41.1C25.6406942 41.8531011 24.8640154 42.4947053 24 43 22.2 44.4 21 45.3 19.2 46.6 18.7 46.9 16.9 47.9 16.7 48.4 16.6141779 49.105524 16.7922633 49.8178657 17.2 50.4 18.5233745 50.0687894 19.7113453 49.3350427 20.6 48.3L20.6 47.2C21.7022913 46.1474042 22.9084585 45.2092741 24.2 44.4 24.6 44.1 25.2 43.5 25.5 43.6 25.8 43.7 25.9 44.1 26.3 44 26.9 42.5 28.8 42.3 29.1 40.5 29 40.3 28.7 40.3 28.5 40.3 28.3267693 40.3260841 28.1498729 40.2907049 28 40.2 27.5 39.4 28.9 38.3 27.9 37.8 26.6 39 27 40.1 26.3 41.1M17.3 41.1C17.2 41.7 16.7 42.2 16.9 42.8 17.4929632 42.1896896 17.9079038 41.4289652 18.1 40.6 18.4 39.7 18.6 38.7 18.9 37.8 20.2 38 19.3 40.2 19 41 18.2478161 42.5760651 17.4133322 44.1115155 16.5 45.6 16.1 46.3 15.3 47.1 15.6 47.8 18.5 46.8 20.2 44.1 21.9 41.6 21.6 41.4 21.6 41.1 21.3 41 20.9439892 41.3545638 20.5400643 41.6575075 20.1 41.9 19.7 41.6 20.1 41 20.3 40.5 20.6076194 39.374081 21.6328249 38.5949248 22.8 38.6 23.3079203 37.9055555 23.4213518 36.9981035 23.1 36.2 22.8472059 36.0867017 22.5763704 36.0189928 22.3 36 21.3 34.6 20.7 32.7 19.3 31.7 17.9 34 18 38.1 17.3 41.1M15.7 37.4L15.4 37.4C15.3 37.4 15.2 37.5 15.1 37.4 14.4403518 38.1299046 13.8696915 38.9355427 13.4 39.8 13 40.4 12.4 42 11.7 42.3 11.1750461 42.4219754 10.6388262 42.4890029 10.1 42.5 9.1 42.7 6.6 43.2 6.5 44.2L6.5 44.3C6.5 44.7 7.6 45.2 8 45.2 8.9 45.2 9.7 44.5 10.4 44.4 10.3 44.8 10 45.1 10.1 45.6 11.1296665 44.9039817 11.985126 43.9800855 12.6 42.9L14.7 39.9C14.3686292 40.3418278 14.4581722 40.9686292 14.9 41.3 16.4 39.4 17.2 36.9 18.2 34.6 18 34.4 18 34.1 17.6 34 16.8 35.1 16.4 36.4 15.7 37.4M13.03 52.48C12.9757489 52.8933414 12.7688617 53.2714455 12.45 53.54L12.09 53.02C12.2964947 52.8163461 12.427064 52.5481496 12.46 52.26 12.4767342 51.9439873 12.3810873 51.6322493 12.19 51.38 11.9701635 51.026852 11.6027561 50.7917113 11.19 50.74 10.6508886 50.7211032 10.1226678 50.8948134 9.7 51.23 9.29187639 51.4840915 8.97633001 51.8627472 8.8 52.31 8.66143728 52.7326884 8.73998701 53.1965059 9.01 53.55 9.22930287 53.9178486 9.63205781 54.136487 10.06 54.12 10.3178766 54.0917002 10.5685463 54.0171768 10.8 53.9L11.15 54.42C10.7386719 54.6465607 10.2651809 54.7342443 9.8 54.67 9.23677989 54.5832463 8.74171501 54.2495359 8.45 53.76 8.15473081 53.3492303 8.02609366 52.8418282 8.09 52.34 8.2474878 51.5979204 8.71773569 50.9599872 9.38 50.59 9.87945831 50.2147695 10.4965544 50.03035 11.12 50.07 11.7481502 50.1291856 12.3115427 50.4813058 12.64 51.02 12.9662715 51.4318118 13.1074546 51.9603436 13.03 52.48z"/>
    <polygon fill="#FFF" fill-rule="nonzero" points="14.48 53.73 14.9 54.23 11.29 57.31 10.87 56.82"/>
    <polygon fill="#FFF" fill-rule="nonzero" points="18.11 57.43 17.72 57.84 16.56 56.74 13.68 59.74 13.21 59.29 16.09 56.29 14.93 55.19 15.32 54.78"/>
    <polygon fill="#FFF" fill-rule="nonzero" points="18.38 57.7 19 58.13 18.8 60.79 21.23 59.7 21.85 60.13 18.8 61.43 17.7 63 17.17 62.63 18.27 61.06"/>
    <path fill="#FFF" fill-rule="nonzero" d="M27.46,63.46 C27.5875428,64.0227108 27.5314695,64.6114809 27.3,65.14 C27.0887479,65.7352425 26.6837804,66.2423322 26.15,66.58 C25.5521894,66.899709 24.8470502,66.9516761 24.2088294,66.7230596 C23.5706086,66.4944432 23.0588447,66.0065706 22.8,65.38 C22.6311151,64.7665504 22.6769839,64.1138025 22.93,63.53 C23.1326716,62.9771129 23.5033377,62.5015413 23.99,62.17 C24.5875626,61.7824967 25.341322,61.7259648 25.99,62.02 C26.688123,62.2271323 27.2385189,62.7662957 27.46,63.46 Z M25.8,66.07 C26.2022271,65.7752467 26.5083805,65.3682018 26.68,64.9 C26.8961039,64.4618734 26.9389574,63.9583446 26.8,63.49 C26.6531282,63.0569263 26.3130737,62.7168718 25.88,62.57 C25.4641929,62.3791212 24.9858071,62.3791212 24.57,62.57 C24.0921457,62.8328955 23.7339933,63.2698414 23.57,63.79 C23.3742918,64.2229848 23.3319658,64.7097332 23.45,65.17 C23.5922096,65.6513308 23.9686692,66.0277904 24.45,66.17 C24.8845747,66.3852977 25.4018901,66.3469781 25.8,66.07 Z"/>
    <polygon fill="#FFF" fill-rule="nonzero" points="29.19 63.27 32.42 63.98 32.29 64.55 29.7 63.98 29.39 65.39 31.67 65.89 31.55 66.44 29.27 65.9 28.8 68.06 28.18 67.9"/>
    <path fill="#FFF" fill-rule="nonzero" d="M35.15 64.29L37.15 64.29C37.6089177 64.2423232 38.0607101 64.4305701 38.35 64.79 38.4920697 64.9878064 38.5657932 65.2265301 38.56 65.47 38.5695801 65.7375833 38.4765732 65.9987179 38.3 66.2 38.1916323 66.3159102 38.0628095 66.4108322 37.92 66.48 38.1178424 66.5485666 38.3010258 66.6537274 38.46 66.79 38.6834968 67.0185069 38.7997648 67.3309771 38.78 67.65 38.7861264 67.9525124 38.6831885 68.2471277 38.49 68.48 38.1492867 68.8751833 37.6399755 69.0833688 37.12 69.04L35.12 69.04 35.15 64.29zM37.15 68.5C37.471621 68.5306281 37.7882249 68.4039866 38 68.16 38.1102944 68.0057987 38.1665436 67.8194732 38.16 67.63 38.1806922 67.31695 37.9875878 67.0293477 37.69 66.93 37.4821033 66.8539127 37.2611531 66.8199204 37.04 66.83L35.8 66.83 35.8 68.5 37.15 68.5zM36.93 66.31C37.1498771 66.3220161 37.3694109 66.2808535 37.57 66.19 37.8105489 66.0713718 37.9535345 65.8171751 37.93 65.55 37.9518475 65.2801672 37.7988684 65.0265439 37.55 64.92 37.344159 64.8502958 37.1270818 64.8197694 36.91 64.83L35.8 64.83 35.8 66.3 36.93 66.31zM43.73 64.29C44.1364965 64.6979126 44.3966726 65.2288125 44.47 65.8 44.5982801 66.4219172 44.5174203 67.0687953 44.24 67.64 43.8904369 68.2141023 43.3170017 68.6161369 42.6581229 68.749052 41.999244 68.881967 41.3147938 68.7336844 40.77 68.34 40.3033375 67.905636 40.0027477 67.3221382 39.92 66.69 39.8069694 66.1139822 39.8732833 65.517157 40.11 64.98 40.4262287 64.3181013 41.0691503 63.8730018 41.8 63.81 42.4830787 63.6518184 43.2005991 63.830269 43.73 64.29L43.73 64.29zM43.73 67.37C43.893855 66.8968586 43.9181545 66.3865705 43.8 65.9 43.7459908 65.4148625 43.5101586 64.9682107 43.14 64.65 42.7856556 64.3592737 42.318442 64.2452294 41.87 64.34 41.4183876 64.4077206 41.0176943 64.6663499 40.77 65.05 40.5059615 65.5213374 40.4308953 66.075398 40.56 66.6 40.6241461 67.0920506 40.8491524 67.5490948 41.2 67.9 41.5778845 68.2223725 42.090142 68.3382848 42.57 68.21 43.0686875 68.1614362 43.497763 67.8367305 43.68 67.37L43.73 67.37zM45.69 63.04L46.69 65.8C46.7845945 66.0834108 46.9497819 66.3380748 47.17 66.54 47.4726932 66.8076317 47.9067005 66.8668145 48.27 66.69 48.7126712 66.5791855 49.0492462 66.2191286 49.13 65.77 49.1534673 65.4901812 49.1088643 65.2088394 49 64.95L48 62.19 48.61 61.97 49.54 64.47C49.7266165 64.894868 49.815468 65.356212 49.8 65.82 49.7037016 66.488401 49.2143327 67.0330211 48.56 67.2 47.9532362 67.4913019 47.2317426 67.3971941 46.72 66.96 46.4040594 66.6198087 46.168293 66.213197 46.03 65.77L45.11 63.27 45.69 63.04z"/>
    <polygon fill="#FFF" fill-rule="nonzero" points="49.66 61.47 50.22 61.16 52.28 64.8 54.36 63.63 54.64 64.12 52 65.61"/>
    <path fill="#FFF" fill-rule="nonzero" d="M52.99,59.57 L54.47,58.38 C54.9039913,57.9895688 55.5033341,57.8397331 56.07,57.98 C56.6314364,58.1444614 57.1188898,58.4976885 57.45,58.98 C57.7519541,59.3412202 57.9704825,59.764619 58.09,60.22 C58.3054403,60.9301817 58.0439172,61.6986572 57.44,62.13 L55.97,63.32 L52.99,59.57 Z M56.99,61.73 C57.1280707,61.6217663 57.2493821,61.4937153 57.35,61.35 C57.4898531,61.1228864 57.5464139,60.8542224 57.51,60.59 C57.4802825,60.3283519 57.3950497,60.0760629 57.26,59.85 C57.1792068,59.7042909 57.0890162,59.5639944 56.99,59.43 C56.7090614,59.0378334 56.3146887,58.7411813 55.86,58.58 C55.4426532,58.476984 55.0015844,58.5938484 54.69,58.89 L53.82,59.59 L56.11,62.43 L56.99,61.73 Z"/>
    <polygon fill="#FFF" fill-rule="nonzero" points="56.8 56.36 59.06 53.76 59.5 54.14 57.65 56.27 58.74 57.27 60.45 55.27 60.86 55.63 59.15 57.63 60.37 58.69 62.25 56.52 62.68 56.89 60.38 59.53"/>
    <path fill="#FFF" fill-rule="nonzero" d="M59.8,52.9 L60.93,51.05 C61.0748965,50.7886899 61.2765014,50.5631658 61.52,50.39 C61.9080068,50.1097037 62.4319932,50.1097037 62.82,50.39 C63.0343716,50.5089306 63.2110694,50.6856284 63.33,50.9 C63.4213074,51.103983 63.4624541,51.3268611 63.45,51.55 C63.5831267,51.437809 63.7468512,51.368139 63.92,51.35 C64.1292121,51.3466146 64.3346648,51.4058128 64.51,51.52 L65.07,51.84 C65.1866641,51.9101808 65.3107571,51.9671965 65.44,52.01 C65.5508057,52.0622984 65.6791943,52.0622984 65.79,52.01 L65.88,52.07 L65.47,52.74 C65.417305,52.7516696 65.362695,52.7516696 65.31,52.74 C65.1921944,52.6967393 65.0784226,52.6431996 64.97,52.58 L64.28,52.2 C64.0621208,52.0666379 63.7878792,52.0666379 63.57,52.2 C63.4160642,52.3179386 63.2897811,52.4681131 63.2,52.64 L62.46,53.85 L64.2,54.91 L63.87,55.46 L59.8,52.9 Z M62.75,52.25 C62.8896933,52.0472619 62.9630643,51.806186 62.96,51.56 C62.9227208,51.3147321 62.765019,51.104463 62.54,51 C62.3164788,50.8230248 62.0079584,50.7992924 61.76,50.94 C61.6168829,51.0435825 61.497552,51.1765513 61.41,51.33 L60.61,52.64 L62,53.48 L62.75,52.25 Z"/>
  </g>
</svg>
